<svg xmlns="http://www.w3.org/2000/svg" viewBox="0 0 24 30" x="0px" y="0px"><path d="M22.1406,4.8122c-.0615-.1572-.1982-.2729-.3633-.3071-.166-.0366-.3369,.0161-.4561,.1357l-2.9082,2.9082h-1.9619v-1.9619l2.9082-2.9082c.1191-.1191,.1709-.2905,.1357-.4561-.0342-.165-.1504-.3018-.3066-.3633-1.9326-.7573-4.1279-.2983-5.5928,1.165-1.3853,1.3857-1.8687,3.4258-1.2754,5.2793l-4.0166,4.0166c-1.854-.5947-3.894-.1104-5.2793,1.2759-1.4639,1.4639-1.9209,3.6587-1.165,5.5918,.0615,.1572,.1982,.2729,.3633,.3071,.165,.0352,.3369-.0166,.4561-.1357l2.9082-2.9082h1.9619v1.9619l-2.9082,2.9082c-.1191,.1191-.1704,.2905-.1357,.4561,.0342,.165,.1499,.3018,.3071,.3633,.6191,.2422,1.2651,.3599,1.9058,.3599,1.3584,0,2.6914-.5298,3.686-1.5249,1.3857-1.3853,1.8691-3.4258,1.2759-5.2793l4.0166-4.0166c1.8545,.5942,3.8936,.1089,5.2793-1.2759,1.4639-1.4639,1.9209-3.6587,1.165-5.5918Zm-1.8721,4.8848c-1.1826,1.1826-2.9531,1.5532-4.5215,.9404-.1816-.0698-.3936-.0283-.5352,.1123l-4.4624,4.4629c-.1406,.1406-.1846,.3506-.1123,.5356,.6118,1.563,.2427,3.3374-.9404,4.5205-.9912,.9922-2.3994,1.4126-3.75,1.1606l2.4556-2.4556c.0937-.0937,.1465-.2207,.1465-.3535v-2.6689c0-.2764-.2236-.5-.5-.5h-2.6689c-.1328,0-.2598,.0527-.3535,.1465l-2.4556,2.4556c-.251-1.3501,.1689-2.7578,1.1606-3.75,1.1826-1.1821,2.9575-1.5518,4.5205-.9404,.1846,.0723,.395,.0288,.5356-.1123l4.4634-4.4629c.1396-.1406,.1836-.3506,.1113-.5356-.6113-1.563-.2422-3.3374,.9404-4.5205,.9932-.9917,2.4023-1.4136,3.751-1.1606l-2.4561,2.4556c-.0937,.0937-.1465,.2207-.1465,.3535v2.6689c0,.2764,.2236,.5,.5,.5h2.6689c.1328,0,.2598-.0527,.3535-.1465l2.4561-2.4556c.251,1.3501-.1689,2.7578-1.1611,3.75Z"/><text x="0" y="39" fill="#000000" font-size="5px" font-weight="bold" font-family="'Helvetica Neue', Helvetica, Arial-Unicode, Arial, Sans-serif">Created by Royyan Wijaya</text><text x="0" y="44" fill="#000000" font-size="5px" font-weight="bold" font-family="'Helvetica Neue', Helvetica, Arial-Unicode, Arial, Sans-serif">from the Noun Project</text></svg>