<?xml version="1.0" encoding="UTF-8"?>
<svg xmlns="http://www.w3.org/2000/svg" xmlns:xlink="http://www.w3.org/1999/xlink" width="3150" height="2400" viewBox="0 0 3150 2400">
<path fill-rule="nonzero" fill="rgb(100%, 100%, 100%)" fill-opacity="1" d="M 0 1.171875 C 0 0.519531 0.523438 0 1.167969 0 L 2398.828125 0 C 2399.140625 0 2399.441406 0.121094 2399.660156 0.339844 C 2399.878906 0.558594 2400 0.859375 2400 1.171875 L 2400 2398.832031 C 2400 2399.144531 2399.878906 2399.441406 2399.660156 2399.660156 C 2399.441406 2399.875 2399.140625 2400 2398.828125 2400 L 1.167969 2400 C 0.855469 2400 0.558594 2399.875 0.339844 2399.660156 C 0.121094 2399.441406 0 2399.144531 0 2398.832031 L 0 1.171875 "/>
<path fill="none" stroke-width="749.999" stroke-linecap="round" stroke-linejoin="miter" stroke="rgb(0%, 0%, 0%)" stroke-opacity="1" stroke-miterlimit="4" d="M 16231.015625 9281.25 L 23071.796875 9281.25 M 16231.015625 12000 L 23071.796875 12000 M 16231.015625 14718.789062 L 23071.796875 14718.789062 M 7498.789062 18216.289062 L 24001.210938 18216.289062 C 24877.890625 18216.289062 25583.710938 17492.304688 25583.710938 16593.085938 L 25583.710938 7406.875 C 25583.710938 6507.65625 24877.890625 5783.75 24001.210938 5783.75 L 7498.789062 5783.75 C 6622.148438 5783.75 5916.367188 6507.65625 5916.367188 7406.875 L 5916.367188 16593.085938 C 5916.367188 17492.304688 6622.148438 18216.289062 7498.789062 18216.289062 Z M 7431.914062 7629.726562 C 7667.8125 9976.25 9053.75 11716.09375 10686.992188 11716.210938 C 12320.507812 11716.210938 13706.601562 9975.859375 13942.304688 7628.984375 M 12367.109375 14629.609375 C 12367.109375 14167.8125 12190.117188 13724.882812 11875 13398.28125 C 11560 13071.71875 11132.617188 12888.203125 10686.992188 12888.203125 C 10241.484375 12888.203125 9814.140625 13071.71875 9499.0625 13398.28125 C 9183.984375 13724.882812 9006.992188 14167.8125 9006.992188 14629.609375 C 9006.992188 15091.484375 9183.984375 15534.414062 9499.0625 15861.015625 C 9814.140625 16187.5 10241.484375 16371.015625 10686.992188 16371.015625 C 11132.617188 16371.015625 11560 16187.5 11875 15861.015625 C 12190.117188 15534.414062 12367.109375 15091.484375 12367.109375 14629.609375 Z M 12367.109375 14629.609375 " transform="matrix(0.1, 0, 0, -0.1, 0, 2400)"/>
</svg>
